<svg height="522" width="666" xmlns="http://www.w3.org/2000/svg"><g fill="none" fill-rule="evenodd" transform="scale(1 -1) rotate(44 896.324 -8.723)"><circle cx="250.896" cy="250.896" fill="#fff" r="250.896"/><path d="M501.792 253.112c0 11.369-.734 22.562-2.146 33.53-55.45-17.815-95.65-70.492-95.65-132.709 0-29.963 9.325-57.71 25.176-80.418 44.904 46.15 72.62 109.586 72.62 179.597" fill="#6321e3"/><path d="M677.824 154.116c0 76.921-61.35 139.27-137.027 139.27-14.421 0-28.322-2.262-41.379-6.466a262.652 262.652 0 0 0 2.148-33.554c0-70.06-27.715-133.541-72.614-179.725 24.825-35.584 65.667-58.803 111.845-58.803 75.678 0 137.027 62.357 137.027 139.278" fill="#141c3a"/></g></svg>