<svg height="188" width="187" xmlns="http://www.w3.org/2000/svg"><g fill="none" fill-rule="evenodd" transform="rotate(180 93.5 94)"><ellipse cx="93.5" cy="94" fill="#141c3a" rx="93.5" ry="94"/><path d="M94 93l39.93-84c.718.35 1.431.708 2.13 1.071.527.268 1.06.55 1.576.839.078.038.158.076.232.124.359.187.723.389 1.073.595l.448.254.817.47c.552.318 1.09.64 1.632.976l1.074.67c.33.196.646.399.967.615.528.342 1.051.695 1.573 1.046.588.395 1.17.8 1.748 1.215.474.328.75.536 1.027.744.287.212.563.42.84.628a78.12 78.12 0 0 1 1.773 1.363c.579.464 1.157.929 1.732 1.403.132.102.261.213.39.325.445.362.875.73 1.311 1.113.564.494 1.123.999 1.674 1.498.252.234.51.456.747.694.228.208.292.276.357.345.163.14.203.184.253.232a121.872 121.872 0 0 1 2.067 2.02c.462.481.923.962 1.375 1.438.51.53 1.002 1.074 1.504 1.624.508.565.915 1.032 1.323 1.499.153.185.313.36.456.54.339.41.683.809 1.016 1.227.433.517.86 1.043 1.27 1.584.228.282.453.575.673.877.339.433.672.878.996 1.316.08.112.13.186.175.245.34.458.658.907.982 1.37.435.615.735 1.054 1.035 1.494.34.507.67 1.01.996 1.523.059.078.114.166.169.253.32.499.63.992.94 1.51.306.478.602.977.898 1.476.35.587.693 1.193 1.03 1.784.37.67.688 1.253.994 1.83.09.166.176.318.246.475.273.523.544 1.047.807 1.565.064.143.135.275.2.417.314.616.61 1.238.898 1.856l.107.235c.302.636.581 1.273.865 1.925.343.779.664 1.559.993 2.342A97.656 97.656 0 0 1 181 62.133z" fill="#fff"/></g></svg>