<svg width="182" height="100" xmlns="http://www.w3.org/2000/svg"><g fill="none" fill-rule="evenodd"><rect fill="#FFF" width="181" height="40" rx="20"/><rect fill="#FFF" y="60" width="181" height="40" rx="20"/><path d="M182 19.995C182 31.041 173.067 40 162.054 40h-2.052C149.882 38.976 142 30.411 142 19.995 142 9.58 149.881 1.024 160.002 0h2.052C173.067 0 182 8.95 182 19.995M0 80.005C0 68.959 8.933 60 19.946 60h2.052C32.118 61.024 40 69.589 40 80.005 40 90.42 32.118 98.976 21.998 100h-2.052C8.933 100 0 91.05 0 80.005" fill="#141C3A"/></g></svg>